# Rhino

mtllib Flowering.mtl
usemtl Leaf
v -0.1544983237981796 0.05746093392372131 0
v -0.1544983237981796 0.05584128946065903 0.08556145429611206
v -0.1544983237981796 0.05019187182188034 0.1723465770483017
v -0.1544983237981796 0.04063228890299797 0.2597199976444244
v -0.1544983237981796 0.02728214301168919 0.3470463454723358
v -0.1544983237981796 0.01026103831827641 0.4336901903152466
v -0.1544983237981796 -0.01031142100691795 0.5190162062644959
v -0.1544983237981796 -0.03431563079357147 0.6023889780044556
v -0.1544983237981796 -0.06163198500871658 0.6831731200218201
v 4.163336342344337e-17 1.249000902703301e-16 0
v 3.523657060577889e-17 -0.001811001216992736 \
 0.08466727286577225
v 4.683753385137379e-17 -0.007302361074835062 0.1691717505455017
v 6.678685382510707e-17 -0.01644390448927879 0.2533591389656067
v 7.28583859910259e-17 -0.02920545637607575 0.3370750248432159
v 8.847089727481716e-17 -0.04555683955550194 0.4201651513576508
v 9.020562075079397e-17 -0.06546788662672043 0.5024751424789429
v 6.938893903907228e-17 -0.08890841156244278 0.5838506817817688
v 4.163336342344337e-17 -0.1158482432365418 0.6641374230384827
v 0.1544983237981796 -0.05746093392372131 0
v 0.1544983237981796 -0.05946370959281921 0.08377308398485184
v 0.1544983237981796 -0.06479737907648087 0.165996864438057
v 0.1544983237981796 -0.07352115213871002 0.2469981014728546
v 0.1544983237981796 -0.08569426089525223 0.3271035254001617
v 0.1544983237981796 -0.1013759300112724 0.4066398441791534
v 0.1544983237981796 -0.1206253692507744 0.4859338402748108
v 0.1544983237981796 -0.1435018181800842 0.5653122067451477
v 0.1544983237981796 -0.1700644940137863 0.6451017260551453
vt 0 0
vt 0 0.125
vt 0 0.25
vt 0 0.375
vt 0 0.5
vt 0 0.625
vt 0 0.75
vt 0 0.875
vt 0 1
vt 0.5 0
vt 0.5 0.125
vt 0.5 0.25
vt 0.5 0.375
vt 0.5 0.5
vt 0.5 0.625
vt 0.5 0.75
vt 0.5 0.875
vt 0.5 1
vt 1 0
vt 1 0.125
vt 1 0.25
vt 1 0.375
vt 1 0.5
vt 1 0.625
vt 1 0.75
vt 1 0.875
vt 1 1
vn -0.3485867977142334 -0.9372641444206238 0.004812627099454403
vn -0.3495354950428009 -0.9360837936401367 -0.03964902088046074
vn -0.3490752577781677 -0.9335318207740784 -0.08163832873106003
vn -0.3483628034591675 -0.9293940663337708 -0.1219428926706314
vn -0.348054051399231 -0.9235045313835144 -0.1612382978200913
vn -0.3483616709709168 -0.9157419204711914 -0.2001520544290543
vn -0.3490721583366394 -0.9060214757919312 -0.2393192201852799
vn -0.3495279252529144 -0.8942844867706299 -0.2794378697872162
vn -0.3485677838325501 -0.8804807066917419 -0.3213319182395935
vn -0.3485907912254334 -0.9372749328613281 0.0004341983294580132
vn -0.3495304882526398 -0.9360514879226685 -0.04044836014509201
vn -0.3490857481956482 -0.9335823655128479 -0.08101306110620499
vn -0.3483724594116211 -0.9294785261154175 -0.1212696135044098
vn -0.34806028008461 -0.9235109686851502 -0.1611878871917725
vn -0.3483722805976868 -0.9156108498573303 -0.2007323652505875
vn -0.3490839600563049 -0.9058645367622376 -0.2398954778909683
vn -0.3495252430438995 -0.8945062160491943 -0.2787304818630219
vn -0.3485815227031708 -0.881906270980835 -0.3173834383487701
vn -0.3485881090164185 -0.9372676610946655 -0.003953302279114723
vn -0.3495250940322876 -0.9360169768333435 -0.0412842221558094
vn -0.3490968644618988 -0.9336356520652771 -0.08034826070070267
vn -0.3483827710151672 -0.9295694828033447 -0.1205405443906784
vn -0.348067045211792 -0.9235178232192993 -0.1611339151859283
vn -0.3483836948871613 -0.9154685139656067 -0.201360747218132
vn -0.3490965068340302 -0.9056978225708008 -0.2405059188604355
vn -0.3495224118232727 -0.8947367072105408 -0.2779933214187622
vn -0.3485891222953796 -0.8833092451095581 -0.3134492039680481
f 11/11/11 2/2/2 1/1/1 10/10/10
f 12/12/12 3/3/3 2/2/2 11/11/11
f 13/13/13 4/4/4 3/3/3 12/12/12
f 14/14/14 5/5/5 4/4/4 13/13/13
f 15/15/15 6/6/6 5/5/5 14/14/14
f 16/16/16 7/7/7 6/6/6 15/15/15
f 17/17/17 8/8/8 7/7/7 16/16/16
f 18/18/18 9/9/9 8/8/8 17/17/17
f 20/20/20 11/11/11 10/10/10 19/19/19
f 21/21/21 12/12/12 11/11/11 20/20/20
f 22/22/22 13/13/13 12/12/12 21/21/21
f 23/23/23 14/14/14 13/13/13 22/22/22
f 24/24/24 15/15/15 14/14/14 23/23/23
f 25/25/25 16/16/16 15/15/15 24/24/24
f 26/26/26 17/17/17 16/16/16 25/25/25
f 27/27/27 18/18/18 17/17/17 26/26/26
